<svg xmlns="http://www.w3.org/2000/svg" width="640" height="420" viewBox="0 0 640 420">
  <rect width="640" height="420" rx="48" fill="#FFF1C7"/>
  <circle cx="526" cy="76" r="58" fill="#FFD84D"/>
  <path d="M82 184h476l-44 150H126L82 184Z" fill="#053D2E"/>
  <path d="M126 184h388l-38 112H164l-38-112Z" fill="#FFE0A3"/>
  <path d="M164 146c28-48 90-52 126-8 42-32 102-22 130 24" fill="#FF9F1C"/>
  <path d="M174 164c30-40 78-40 110 0 34-24 78-20 110 0" stroke="#FFFFFF" stroke-width="10" stroke-linecap="round" fill="none" opacity=".65"/>
  <path d="M428 118h96l18 38-30 34h-84l-28-38 28-34Z" fill="#FF5A3C"/>
  <path d="M452 152h58" stroke="#FFF7E6" stroke-width="10" stroke-linecap="round"/>
  <path d="M104 334c90 26 274 26 430 0" stroke="#7CFFB2" stroke-width="12" stroke-linecap="round" opacity=".85"/>
</svg>
